<svg width="25" height="25" viewBox="0 0 25 25" fill="none" xmlns="http://www.w3.org/2000/svg">
<g clip-path="url(#clip0_86_100)">
<path d="M17.31 9.44002L13.56 5.69002L4.5 14.75V18.5H8.25L17.31 9.44002ZM6.5 16.5V15.58L13.56 8.52002L14.48 9.44002L7.42 16.5H6.5ZM20.21 6.54002C20.3027 6.4475 20.3762 6.33761 20.4264 6.21664C20.4766 6.09567 20.5024 5.96599 20.5024 5.83502C20.5024 5.70405 20.4766 5.57437 20.4264 5.45339C20.3762 5.33242 20.3027 5.22253 20.21 5.13002L17.87 2.79002C17.6825 2.60401 17.4291 2.49963 17.165 2.49963C16.9009 2.49963 16.6475 2.60401 16.46 2.79002L14.63 4.62002L18.38 8.37002L20.21 6.54002ZM2.5 20.5H22.5V24.5H2.5V20.5Z" fill="#969FEE"/>
</g>
<defs>
<clipPath id="clip0_86_100">
<rect width="24" height="24" fill="white" transform="translate(0.5 0.5)"/>
</clipPath>
</defs>
</svg>
