<svg width="20" height="21" viewBox="0 0 20 21" fill="none" xmlns="http://www.w3.org/2000/svg">
<path d="M11 14.5H5.00001C4.73479 14.5 4.48044 14.6054 4.2929 14.7929C4.10537 14.9804 4.00001 15.2348 4.00001 15.5C4.00001 15.7652 4.10537 16.0196 4.2929 16.2071C4.48044 16.3947 4.73479 16.5 5.00001 16.5H11C11.2652 16.5 11.5196 16.3947 11.7071 16.2071C11.8947 16.0196 12 15.7652 12 15.5C12 15.2348 11.8947 14.9804 11.7071 14.7929C11.5196 14.6054 11.2652 14.5 11 14.5ZM7.00001 8.50001H9.00001C9.26522 8.50001 9.51958 8.39465 9.70711 8.20711C9.89465 8.01958 10 7.76522 10 7.50001C10 7.23479 9.89465 6.98044 9.70711 6.7929C9.51958 6.60536 9.26522 6.50001 9.00001 6.50001H7.00001C6.73479 6.50001 6.48044 6.60536 6.2929 6.7929C6.10537 6.98044 6.00001 7.23479 6.00001 7.50001C6.00001 7.76522 6.10537 8.01958 6.2929 8.20711C6.48044 8.39465 6.73479 8.50001 7.00001 8.50001ZM19 10.5H16V1.50001C16.0007 1.3238 15.9548 1.15053 15.867 0.997753C15.7792 0.844976 15.6526 0.718112 15.5 0.630007C15.348 0.542239 15.1755 0.496033 15 0.496033C14.8245 0.496033 14.652 0.542239 14.5 0.630007L11.5 2.35001L8.50001 0.630007C8.34799 0.542239 8.17554 0.496033 8.00001 0.496033C7.82447 0.496033 7.65203 0.542239 7.50001 0.630007L4.50001 2.35001L1.50001 0.630007C1.34799 0.542239 1.17554 0.496033 1.00001 0.496033C0.824471 0.496033 0.652027 0.542239 0.500008 0.630007C0.347404 0.718112 0.220789 0.844976 0.132986 0.997753C0.0451828 1.15053 -0.000691685 1.3238 7.88288e-06 1.50001V17.5C7.88288e-06 18.2957 0.316078 19.0587 0.878688 19.6213C1.4413 20.1839 2.20436 20.5 3.00001 20.5H17C17.7957 20.5 18.5587 20.1839 19.1213 19.6213C19.6839 19.0587 20 18.2957 20 17.5V11.5C20 11.2348 19.8947 10.9804 19.7071 10.7929C19.5196 10.6054 19.2652 10.5 19 10.5ZM3.00001 18.5C2.73479 18.5 2.48044 18.3947 2.2929 18.2071C2.10536 18.0196 2.00001 17.7652 2.00001 17.5V3.23001L4.00001 4.37001C4.15435 4.45062 4.32589 4.49272 4.50001 4.49272C4.67413 4.49272 4.84567 4.45062 5.00001 4.37001L8.00001 2.65001L11 4.37001C11.1543 4.45062 11.3259 4.49272 11.5 4.49272C11.6741 4.49272 11.8457 4.45062 12 4.37001L14 3.23001V17.5C14.0027 17.8412 14.0636 18.1793 14.18 18.5H3.00001ZM18 17.5C18 17.7652 17.8947 18.0196 17.7071 18.2071C17.5196 18.3947 17.2652 18.5 17 18.5C16.7348 18.5 16.4804 18.3947 16.2929 18.2071C16.1054 18.0196 16 17.7652 16 17.5V12.5H18V17.5ZM11 10.5H5.00001C4.73479 10.5 4.48044 10.6054 4.2929 10.7929C4.10537 10.9804 4.00001 11.2348 4.00001 11.5C4.00001 11.7652 4.10537 12.0196 4.2929 12.2071C4.48044 12.3947 4.73479 12.5 5.00001 12.5H11C11.2652 12.5 11.5196 12.3947 11.7071 12.2071C11.8947 12.0196 12 11.7652 12 11.5C12 11.2348 11.8947 10.9804 11.7071 10.7929C11.5196 10.6054 11.2652 10.5 11 10.5Z" fill="#969FEE"/>
</svg>
