<svg width="20" height="21" viewBox="0 0 20 21" fill="none" xmlns="http://www.w3.org/2000/svg">
<path d="M2 5.14301V17.967L7.065 15.797L13.065 18.797L18 16.68V3.85701L19.303 3.29901C19.3791 3.2664 19.4621 3.25318 19.5445 3.26056C19.627 3.26793 19.7063 3.29566 19.7754 3.34126C19.8445 3.38686 19.9012 3.4489 19.9404 3.52181C19.9796 3.59473 20.0001 3.67623 20 3.75901V18L13 21L7 18L0.697 20.701C0.620914 20.7336 0.537919 20.7468 0.455466 20.7395C0.373012 20.7321 0.293679 20.7044 0.224587 20.6588C0.155495 20.6132 0.0988058 20.5511 0.059607 20.4782C0.0204082 20.4053 -7.34563e-05 20.3238 1.9795e-07 20.241V6.00001L2 5.14301ZM14.243 10.243L10 14.485L5.757 10.243C4.91799 9.40386 4.34664 8.33476 4.11521 7.1709C3.88379 6.00704 4.00266 4.80069 4.45682 3.7044C4.91098 2.6081 5.68001 1.67109 6.66668 1.01184C7.65336 0.352601 8.81336 0.000732422 10 0.000732422C11.1866 0.000732422 12.3466 0.352601 13.3333 1.01184C14.32 1.67109 15.089 2.6081 15.5432 3.7044C15.9973 4.80069 16.1162 6.00704 15.8848 7.1709C15.6534 8.33476 15.082 9.40386 14.243 10.243ZM10 11.657L12.828 8.82801C13.3875 8.26865 13.7686 7.55592 13.9231 6.77997C14.0775 6.00401 13.9983 5.19968 13.6956 4.4687C13.3929 3.73773 12.8802 3.11294 12.2224 2.67337C11.5646 2.23379 10.7912 1.99916 10 1.99916C9.20882 1.99916 8.43542 2.23379 7.77759 2.67337C7.11977 3.11294 6.60708 3.73773 6.30437 4.4687C6.00165 5.19968 5.92251 6.00401 6.07695 6.77997C6.23139 7.55592 6.61247 8.26865 7.172 8.82801L10 11.657Z" fill="#3F6375"/>
</svg>
