<svg width="23" height="23" viewBox="0 0 23 23" fill="none" xmlns="http://www.w3.org/2000/svg">
<path d="M1.5 6.5L5.91 2.09C6.09606 1.90283 6.31732 1.75434 6.56103 1.65308C6.80474 1.55182 7.06609 1.49979 7.33 1.5H15.67C15.9339 1.49979 16.1953 1.55182 16.439 1.65308C16.6827 1.75434 16.9039 1.90283 17.09 2.09L21.5 6.5M3.5 11.5V19.5C3.5 20.0304 3.71071 20.5391 4.08579 20.9142C4.46086 21.2893 4.96957 21.5 5.5 21.5H17.5C18.0304 21.5 18.5391 21.2893 18.9142 20.9142C19.2893 20.5391 19.5 20.0304 19.5 19.5V11.5" stroke="#969FEE" stroke-width="2" stroke-linecap="round" stroke-linejoin="round"/>
<path d="M14.5 21.5V17.5C14.5 16.9696 14.2893 16.4609 13.9142 16.0858C13.5391 15.7107 13.0304 15.5 12.5 15.5H10.5C9.96957 15.5 9.46086 15.7107 9.08579 16.0858C8.71071 16.4609 8.5 16.9696 8.5 17.5V21.5M1.5 6.5H21.5V9.5C21.5 10.0304 21.2893 10.5391 20.9142 10.9142C20.5391 11.2893 20.0304 11.5 19.5 11.5C18.9157 11.4678 18.3577 11.2467 17.91 10.87C17.7907 10.7838 17.6472 10.7374 17.5 10.7374C17.3528 10.7374 17.2093 10.7838 17.09 10.87C16.6423 11.2467 16.0843 11.4678 15.5 11.5C14.9157 11.4678 14.3577 11.2467 13.91 10.87C13.7907 10.7838 13.6472 10.7374 13.5 10.7374C13.3528 10.7374 13.2093 10.7838 13.09 10.87C12.6423 11.2467 12.0843 11.4678 11.5 11.5C10.9157 11.4678 10.3577 11.2467 9.91 10.87C9.79068 10.7838 9.64721 10.7374 9.5 10.7374C9.35279 10.7374 9.20932 10.7838 9.09 10.87C8.64227 11.2467 8.08426 11.4678 7.5 11.5C6.91574 11.4678 6.35773 11.2467 5.91 10.87C5.79068 10.7838 5.64721 10.7374 5.5 10.7374C5.35279 10.7374 5.20932 10.7838 5.09 10.87C4.64227 11.2467 4.08426 11.4678 3.5 11.5C2.96957 11.5 2.46086 11.2893 2.08579 10.9142C1.71071 10.5391 1.5 10.0304 1.5 9.5V6.5Z" stroke="#969FEE" stroke-width="2" stroke-linecap="round" stroke-linejoin="round"/>
</svg>
