<svg xmlns="http://www.w3.org/2000/svg" version="1.1" xmlns:xlink="http://www.w3.org/1999/xlink" xmlns:svgjs="http://svgjs.com/svgjs" width="512" height="512" x="0" y="0" viewBox="0 0 24 24" style="enable-background:new 0 0 512 512" xml:space="preserve" class=""><g><path d="M6 23H2a1 1 0 0 1-1-1v-9a1 1 0 0 1 1-1h4a1 1 0 0 1 1 1v9a1 1 0 0 1-1 1zm-3-2h2v-7H3zm11 2h-4a1 1 0 0 1-1-1V2a1 1 0 0 1 1-1h4a1 1 0 0 1 1 1v20a1 1 0 0 1-1 1zm-3-2h2V3h-2zm11 2h-4a1 1 0 0 1-1-1V7a1 1 0 0 1 1-1h4a1 1 0 0 1 1 1v15a1 1 0 0 1-1 1zm-3-2h2V8h-2z" fill="#757575" data-original="#000000" class=""></path></g></svg>