<svg xmlns="http://www.w3.org/2000/svg" version="1.1" xmlns:xlink="http://www.w3.org/1999/xlink" xmlns:svgjs="http://svgjs.com/svgjs" width="512" height="512" x="0" y="0" viewBox="0 0 512.001 512" style="enable-background:new 0 0 512 512" xml:space="preserve" class=""><g><path d="m220.95 234.61 84.538-45.462-84.539-46.257zm0 0" fill="#33a7d5" data-original="#000000" class=""></path><path d="m508.234 91.527-.023-.234c-.434-4.121-4.75-40.781-22.57-59.422C465.043 9.941 441.69 7.277 430.46 6c-.93-.11-1.781-.203-2.543-.305l-.895-.093C359.336.68 257.113.008 256.09 0h-.18c-1.023.008-103.246.68-171.543 5.602l-.902.093c-.727.098-1.528.188-2.399.29-11.101 1.28-34.203 3.949-54.859 26.667C9.234 51.102 4.328 86.972 3.824 91.004l-.058.523C3.613 93.242 0 134.067 0 175.051v38.312c0 40.985 3.613 81.809 3.766 83.524l.027.261c.434 4.051 4.746 40.036 22.484 58.688 19.368 21.2 43.856 24 57.028 25.508 2.082.238 3.879.445 5.097.66l1.184.16c39.082 3.723 161.617 5.555 166.812 5.629l.157.004.152-.004c1.027-.004 103.246-.676 170.934-5.602l.894-.09c.852-.113 1.813-.214 2.867-.324 11.043-1.172 34.016-3.605 54.391-26.015 16.973-18.45 21.879-54.32 22.383-58.352l.058-.523c.153-1.715 3.766-42.54 3.766-83.524v-38.312c0-40.985-3.613-81.805-3.766-83.524zM334.676 207.52l-113.113 60.824a20.74 20.74 0 0 1-9.848 2.504c-3.676 0-7.344-.993-10.652-2.965-6.336-3.79-10.118-10.457-10.118-17.836V127.328c0-7.414 3.805-14.094 10.18-17.875 6.375-3.777 14.066-3.914 20.57-.355l113.114 61.894a20.763 20.763 0 0 1 10.804 18.305 20.761 20.761 0 0 1-10.937 18.223zm0 0" fill="#33a7d5" data-original="#000000" class=""></path></g></svg>