<svg width="259" height="204" viewBox="0 0 259 204" fill="none" xmlns="http://www.w3.org/2000/svg">
<path d="M258.204 180.679H0V180.808H258.204V180.679Z" fill="#EBEBEB"/>
<path d="M122.389 157.647H22.6754C21.8943 157.646 21.1456 157.335 20.5937 156.782C20.0419 156.229 19.7319 155.48 19.7319 154.699V14.5302C19.7387 13.7535 20.0517 13.0109 20.6028 12.4636C21.1539 11.9163 21.8987 11.6086 22.6754 11.6073H122.389C123.171 11.6073 123.921 11.9179 124.474 12.4709C125.027 13.0239 125.337 13.7739 125.337 14.556V154.699C125.337 155.481 125.027 156.231 124.474 156.784C123.921 157.337 123.171 157.647 122.389 157.647ZM22.6754 11.7106C21.9285 11.7119 21.2127 12.0096 20.685 12.5382C20.1574 13.0669 19.861 13.7832 19.861 14.5302V154.699C19.861 155.446 20.1574 156.162 20.685 156.691C21.2127 157.219 21.9285 157.517 22.6754 157.518H122.389C123.136 157.517 123.852 157.219 124.381 156.691C124.909 156.162 125.207 155.446 125.208 154.699V14.5302C125.207 13.7828 124.909 13.0664 124.381 12.5379C123.852 12.0094 123.136 11.7119 122.389 11.7106H22.6754Z" fill="#EBEBEB"/>
<path d="M234.093 157.647H134.374C133.593 157.646 132.844 157.335 132.291 156.782C131.738 156.229 131.427 155.48 131.426 154.699V14.5302C131.434 13.753 131.748 13.0104 132.3 12.4633C132.852 11.9162 133.597 11.6086 134.374 11.6073H234.093C234.868 11.61 235.612 11.9183 236.162 12.4654C236.712 13.0125 237.024 13.7544 237.031 14.5302V154.699C237.031 155.479 236.722 156.227 236.171 156.78C235.62 157.333 234.873 157.645 234.093 157.647ZM134.374 11.7106C133.627 11.7119 132.911 12.0094 132.382 12.5379C131.854 13.0664 131.556 13.7828 131.555 14.5302V154.699C131.556 155.446 131.854 156.162 132.382 156.691C132.911 157.219 133.627 157.517 134.374 157.518H234.093C234.84 157.517 235.556 157.219 236.085 156.691C236.613 156.162 236.911 155.446 236.912 154.699V14.5302C236.911 13.7828 236.613 13.0664 236.085 12.5379C235.556 12.0094 234.84 11.7119 234.093 11.7106H134.374Z" fill="#EBEBEB"/>
<path d="M103.509 185.595H90.0821V185.724H103.509V185.595Z" fill="#EBEBEB"/>
<path d="M55.0284 184.196H27.0907V184.325H55.0284V184.196Z" fill="#EBEBEB"/>
<path d="M89.5657 190.393H75.9738V190.522H89.5657V190.393Z" fill="#EBEBEB"/>
<path d="M153.404 189.525H133.352V189.654H153.404V189.525Z" fill="#EBEBEB"/>
<path d="M163.52 189.525H158V189.654H163.52V189.525Z" fill="#EBEBEB"/>
<path d="M232.337 187.346H204.162V187.475H232.337V187.346Z" fill="#EBEBEB"/>
<path d="M59.7173 65.1432H97.9315C98.7081 65.1432 99.4528 65.4517 100.002 66.0008C100.551 66.55 100.86 67.2947 100.86 68.0713V180.679H56.8048V68.0661C56.8062 67.2931 57.1131 66.552 57.6587 66.0045C58.2044 65.4569 58.9444 65.1473 59.7173 65.1432Z" fill="#F5F5F5"/>
<path d="M66.1311 71.9701H60.4507V84.617H66.1311V71.9701Z" fill="#EBEBEB"/>
<path d="M97.1982 71.9701H91.5177V84.617H97.1982V71.9701Z" fill="#EBEBEB"/>
<path d="M76.4851 71.9701H70.8046V84.617H76.4851V71.9701Z" fill="#EBEBEB"/>
<path d="M86.8442 71.9701H81.1637V84.617H86.8442V71.9701Z" fill="#EBEBEB"/>
<path d="M66.1311 91.9344H60.4507V104.581H66.1311V91.9344Z" fill="#EBEBEB"/>
<path d="M97.1982 91.9344H91.5177V104.581H97.1982V91.9344Z" fill="#EBEBEB"/>
<path d="M76.4851 91.9344H70.8046V104.581H76.4851V91.9344Z" fill="#EBEBEB"/>
<path d="M86.8442 91.9344H81.1637V104.581H86.8442V91.9344Z" fill="#EBEBEB"/>
<path d="M66.1311 111.899H60.4507V124.546H66.1311V111.899Z" fill="#EBEBEB"/>
<path d="M97.1982 111.899H91.5177V124.546H97.1982V111.899Z" fill="#EBEBEB"/>
<path d="M76.4851 111.899H70.8046V124.546H76.4851V111.899Z" fill="#EBEBEB"/>
<path d="M86.8442 111.899H81.1637V124.546H86.8442V111.899Z" fill="#EBEBEB"/>
<path d="M66.1311 131.863H60.4507V144.51H66.1311V131.863Z" fill="#EBEBEB"/>
<path d="M97.1982 131.863H91.5177V144.51H97.1982V131.863Z" fill="#EBEBEB"/>
<path d="M76.4851 131.863H70.8046V144.51H76.4851V131.863Z" fill="#EBEBEB"/>
<path d="M86.8442 131.863H81.1637V144.51H86.8442V131.863Z" fill="#EBEBEB"/>
<path d="M66.1311 151.827H60.4507V164.474H66.1311V151.827Z" fill="#EBEBEB"/>
<path d="M97.1982 151.827H91.5177V164.474H97.1982V151.827Z" fill="#EBEBEB"/>
<path d="M76.4851 151.827H70.8046V164.474H76.4851V151.827Z" fill="#EBEBEB"/>
<path d="M86.8442 151.827H81.1637V164.474H86.8442V151.827Z" fill="#EBEBEB"/>
<path d="M195.202 75.6418H222.572C222.884 75.6418 223.194 75.7034 223.483 75.823C223.771 75.9426 224.034 76.118 224.255 76.3391C224.476 76.5601 224.651 76.8226 224.771 77.1114C224.891 77.4002 224.952 77.7098 224.952 78.0224V180.679H192.847V78.0276C192.846 77.3998 193.092 76.7968 193.533 76.35C193.974 75.9031 194.574 75.6486 195.202 75.6418Z" fill="#F5F5F5"/>
<path d="M202.081 81.849H196.916V93.3442H202.081V81.849Z" fill="#EBEBEB"/>
<path d="M211.495 81.849H206.331V93.3442H211.495V81.849Z" fill="#EBEBEB"/>
<path d="M220.909 81.849H215.745V93.3442H220.909V81.849Z" fill="#EBEBEB"/>
<path d="M202.081 100.001H196.916V111.496H202.081V100.001Z" fill="#EBEBEB"/>
<path d="M211.495 100.001H206.331V111.496H211.495V100.001Z" fill="#EBEBEB"/>
<path d="M220.909 100.001H215.745V111.496H220.909V100.001Z" fill="#EBEBEB"/>
<path d="M202.081 118.152H196.916V129.648H202.081V118.152Z" fill="#EBEBEB"/>
<path d="M211.495 118.152H206.331V129.648H211.495V118.152Z" fill="#EBEBEB"/>
<path d="M220.909 118.152H215.745V129.648H220.909V118.152Z" fill="#EBEBEB"/>
<path d="M202.081 136.299H196.916V147.794H202.081V136.299Z" fill="#EBEBEB"/>
<path d="M211.495 136.299H206.331V147.794H211.495V136.299Z" fill="#EBEBEB"/>
<path d="M220.909 136.299H215.745V147.794H220.909V136.299Z" fill="#EBEBEB"/>
<path d="M202.081 154.451H196.916V165.946H202.081V154.451Z" fill="#EBEBEB"/>
<path d="M211.495 154.451H206.331V165.946H211.495V154.451Z" fill="#EBEBEB"/>
<path d="M220.909 154.451H215.745V165.946H220.909V154.451Z" fill="#EBEBEB"/>
<path d="M132.505 46.2634H176.962C177.865 46.2634 178.731 46.6219 179.369 47.2601C180.007 47.8983 180.366 48.7639 180.366 49.6665V180.679H129.102V49.6665C129.102 48.7639 129.46 47.8983 130.099 47.2601C130.737 46.6219 131.602 46.2634 132.505 46.2634Z" fill="#F5F5F5"/>
<path d="M139.967 54.2057H133.357V68.9182H139.967V54.2057Z" fill="#EBEBEB"/>
<path d="M176.11 54.2057H169.5V68.9182H176.11V54.2057Z" fill="#EBEBEB"/>
<path d="M152.015 54.2057H145.405V68.9182H152.015V54.2057Z" fill="#EBEBEB"/>
<path d="M164.063 54.2057H157.453V68.9182H164.063V54.2057Z" fill="#EBEBEB"/>
<path d="M139.967 77.4337H133.357V92.1462H139.967V77.4337Z" fill="#EBEBEB"/>
<path d="M176.11 77.4337H169.5V92.1462H176.11V77.4337Z" fill="#EBEBEB"/>
<path d="M152.015 77.4337H145.405V92.1462H152.015V77.4337Z" fill="#EBEBEB"/>
<path d="M164.063 77.4337H157.453V92.1462H164.063V77.4337Z" fill="#EBEBEB"/>
<path d="M139.967 100.662H133.357V115.374H139.967V100.662Z" fill="#EBEBEB"/>
<path d="M176.11 100.662H169.5V115.374H176.11V100.662Z" fill="#EBEBEB"/>
<path d="M152.015 100.662H145.405V115.374H152.015V100.662Z" fill="#EBEBEB"/>
<path d="M164.063 100.662H157.453V115.374H164.063V100.662Z" fill="#EBEBEB"/>
<path d="M139.967 123.89H133.357V138.602H139.967V123.89Z" fill="#EBEBEB"/>
<path d="M176.11 123.89H169.5V138.602H176.11V123.89Z" fill="#EBEBEB"/>
<path d="M152.015 123.89H145.405V138.602H152.015V123.89Z" fill="#EBEBEB"/>
<path d="M164.063 123.89H157.453V138.602H164.063V123.89Z" fill="#EBEBEB"/>
<path d="M139.967 147.113H133.357V161.825H139.967V147.113Z" fill="#EBEBEB"/>
<path d="M176.11 147.113H169.5V161.825H176.11V147.113Z" fill="#EBEBEB"/>
<path d="M152.015 147.113H145.405V161.825H152.015V147.113Z" fill="#EBEBEB"/>
<path d="M164.063 147.113H157.453V161.825H164.063V147.113Z" fill="#EBEBEB"/>
<path d="M129.102 94.4029H100.86V180.679H129.102V94.4029Z" fill="#E6E6E6"/>
<path d="M192.847 103.641H180.371V180.679H192.847V103.641Z" fill="#E6E6E6"/>
<path d="M56.7893 180.679H32.0741V144.66L56.7893 136.299V180.679Z" fill="#E6E6E6"/>
<path d="M217.407 31.9434C221.451 28.5713 229.677 21.9922 222.603 21.0524C215.807 20.1487 205.793 24.125 202.597 27.6159C202.597 24.2748 201.022 21.0937 195.021 18.522C185.788 14.556 184.357 28.9689 184.843 31.6129C181.13 29.8313 169.407 30.1618 177.489 35.1865H218.513C218.513 35.1865 226.982 29.8933 217.407 31.9434Z" fill="#F5F5F5"/>
<path d="M32.3271 49.305C32.2961 47.384 32.0896 43.6245 35.4875 43.1081C38.7512 42.5917 40.9666 44.8588 40.5948 46.8469C42.2266 44.9414 44.4265 43.134 48.1756 41.6829C53.9542 39.421 47.525 47.6319 46.0274 49.1398C48.439 48.107 53.1486 48.3084 47.3391 51.1693H30.2976C30.2976 51.1693 29.3629 48.1328 32.3271 49.305Z" fill="#FAFAFA"/>
<path d="M103.834 26.5108H48.9399C48.9399 26.5108 52.121 22.6481 57.0888 23.8668C54.7495 20.8871 53.505 9.71723 61.3337 8.32293C65.3152 7.61545 70.0145 14.8555 70.1126 18.6511C72.075 9.56747 77.4973 -1.97423 85.8217 0.287635C94.1462 2.5495 87.6963 19.0332 87.6963 19.0332C87.6963 19.0332 95.6954 7.38307 102.336 12.5523C106.292 15.6508 98.8662 22.7152 98.8662 22.7152C98.8662 22.7152 107.96 22.6481 103.834 26.5108Z" fill="#F5F5F5"/>
<path d="M129.102 204C184.4 204 229.228 201.383 229.228 198.154C229.228 194.926 184.4 192.309 129.102 192.309C73.8037 192.309 28.9756 194.926 28.9756 198.154C28.9756 201.383 73.8037 204 129.102 204Z" fill="#F5F5F5"/>
<path d="M102.347 158.592C99.4592 158.655 96.711 159.846 94.6909 161.91C92.6709 163.974 91.5396 166.747 91.5396 169.636C91.5396 172.524 92.6709 175.297 94.6909 177.361C96.711 179.426 99.4592 180.617 102.347 180.679H104.557V158.592H102.347Z" fill="#263238"/>
<path d="M182.808 158.592C181.338 158.56 179.876 158.823 178.508 159.363C177.141 159.904 175.895 160.712 174.844 161.741C173.792 162.77 172.957 163.998 172.387 165.353C171.817 166.709 171.523 168.165 171.523 169.636C171.523 171.106 171.817 172.562 172.387 173.918C172.957 175.274 173.792 176.502 174.844 177.53C175.895 178.559 177.141 179.367 178.508 179.908C179.876 180.449 181.338 180.711 182.808 180.679H185.013V158.592H182.808Z" fill="#263238"/>
<path d="M146.35 180.674C152.447 180.674 157.391 175.731 157.391 169.633C157.391 163.535 152.447 158.592 146.35 158.592C140.252 158.592 135.309 163.535 135.309 169.633C135.309 175.731 140.252 180.674 146.35 180.674Z" fill="#263238"/>
<path d="M65.8832 180.674C71.9809 180.674 76.924 175.731 76.924 169.633C76.924 163.535 71.9809 158.592 65.8832 158.592C59.7856 158.592 54.8425 163.535 54.8425 169.633C54.8425 175.731 59.7856 180.674 65.8832 180.674Z" fill="#263238"/>
<path d="M158.341 111.098H116.445V164.33H158.341V111.098Z" fill="#05138B"/>
<path opacity="0.2" d="M158.341 111.098H116.445V164.33H158.341V111.098Z" fill="black"/>
<path d="M200.631 124.335L200.238 124.67L201.906 126.628L202.299 126.293L200.631 124.335Z" fill="#05138B"/>
<path d="M193.835 116.347L193.442 116.682L198.637 122.778L199.03 122.443L193.835 116.347Z" fill="#05138B"/>
<path d="M158.341 164.324H210.374V141.226C210.375 139.51 209.763 137.851 208.649 136.547L192.46 117.522C190.744 115.508 188.61 113.89 186.207 112.781C183.804 111.672 181.189 111.098 178.543 111.098H158.341V164.324Z" fill="#05138B"/>
<path d="M166.867 139.031V119.459C166.867 119.037 166.95 118.62 167.111 118.231C167.273 117.841 167.509 117.487 167.808 117.19C168.106 116.892 168.46 116.656 168.85 116.495C169.24 116.334 169.657 116.251 170.079 116.252H175.062C177.67 116.252 180.247 116.818 182.615 117.911C184.983 119.004 187.086 120.598 188.778 122.583L201.022 136.95C201.514 137.526 201.785 138.258 201.786 139.015C201.786 139.866 201.448 140.683 200.847 141.285C200.246 141.887 199.43 142.226 198.579 142.227H170.079C169.23 142.227 168.415 141.891 167.813 141.292C167.211 140.693 166.871 139.88 166.867 139.031Z" fill="white"/>
<path d="M210.374 158.035H203.95C203.603 158.034 203.261 157.944 202.96 157.771C202.658 157.598 202.407 157.35 202.232 157.05C202.056 156.751 201.961 156.411 201.957 156.063C201.953 155.716 202.04 155.374 202.21 155.07L203.294 153.129C203.466 152.817 203.717 152.557 204.023 152.375C204.329 152.193 204.679 152.097 205.034 152.096H210.374V158.035Z" fill="white"/>
<path d="M149.092 102.154H47.8296V164.324H149.092V102.154Z" fill="#05138B"/>
<path opacity="0.6" d="M149.092 102.154H47.8296V164.324H149.092V102.154Z" fill="white"/>
<path opacity="0.5" d="M92.4834 154.848H75.2509V158.592H92.4834V154.848Z" fill="#05138B"/>
<path opacity="0.5" d="M52.5599 154.848H47.8296V158.592H52.5599V154.848Z" fill="#05138B"/>
<path opacity="0.4" d="M82.8111 102.154H47.8296V164.324H82.8111V102.154Z" fill="#05138B"/>
<path opacity="0.4" d="M63.5491 102.154H62.9862V164.324H63.5491V102.154Z" fill="#05138B"/>
<path d="M210.88 164.324H47.3236C46.8558 164.324 46.4767 164.704 46.4767 165.171V167.79C46.4767 168.257 46.8558 168.636 47.3236 168.636H210.88C211.348 168.636 211.727 168.257 211.727 167.79V165.171C211.727 164.704 211.348 164.324 210.88 164.324Z" fill="#263238"/>
<path d="M185.024 180.674C191.121 180.674 196.064 175.731 196.064 169.633C196.064 163.535 191.121 158.592 185.024 158.592C178.926 158.592 173.983 163.535 173.983 169.633C173.983 175.731 178.926 180.674 185.024 180.674Z" fill="#263238"/>
<path d="M185.024 176.739C188.948 176.739 192.129 173.557 192.129 169.633C192.129 165.709 188.948 162.527 185.024 162.527C181.099 162.527 177.918 165.709 177.918 169.633C177.918 173.557 181.099 176.739 185.024 176.739Z" fill="white"/>
<path d="M104.557 180.674C110.655 180.674 115.598 175.731 115.598 169.633C115.598 163.535 110.655 158.592 104.557 158.592C98.4593 158.592 93.5162 163.535 93.5162 169.633C93.5162 175.731 98.4593 180.674 104.557 180.674Z" fill="#263238"/>
<path d="M104.557 176.739C108.481 176.739 111.663 173.557 111.663 169.633C111.663 165.709 108.481 162.527 104.557 162.527C100.633 162.527 97.4512 165.709 97.4512 169.633C97.4512 173.557 100.633 176.739 104.557 176.739Z" fill="white"/>
<path d="M118.949 193.656L114.56 193.589L113.367 183.411L117.751 183.483L118.949 193.656Z" fill="#333333"/>
<path d="M114.446 193.083L119.228 193.155C119.313 193.155 119.394 193.186 119.457 193.242C119.52 193.298 119.56 193.376 119.569 193.46L119.987 197.375C119.995 197.474 119.982 197.573 119.949 197.667C119.917 197.761 119.864 197.847 119.796 197.919C119.728 197.992 119.646 198.049 119.554 198.088C119.462 198.127 119.364 198.146 119.264 198.144C117.545 198.087 115.061 197.948 112.892 197.917C110.356 197.875 110.604 197.979 107.63 197.917C105.833 197.891 105.564 196.058 106.318 195.908C109.83 195.211 110.181 195.175 113.351 193.393C113.683 193.195 114.06 193.088 114.446 193.083Z" fill="#263238"/>
<path d="M110.16 62.4786C108.724 65.546 107.186 68.4431 105.476 71.335C104.619 72.7706 103.736 74.201 102.781 75.6057C102.316 76.308 101.815 77.0051 101.319 77.7023C100.823 78.3994 100.286 79.0862 99.7131 79.7679L99.2896 80.2843C99.075 80.5499 98.8439 80.8017 98.5977 81.0383C98.4355 81.1975 98.263 81.3459 98.0812 81.4824C97.8824 81.6348 97.6717 81.7713 97.4512 81.8903C96.9686 82.1583 96.4452 82.345 95.902 82.4429C94.9142 82.606 93.9003 82.4842 92.9791 82.0917C92.3454 81.8167 91.7528 81.4552 91.2182 81.0176C90.4121 80.352 89.6937 79.5867 89.0803 78.7403C88.5378 78.0065 88.0345 77.2446 87.5724 76.4577C86.7119 74.9659 85.9445 73.4223 85.2744 71.8359C84.6107 70.2788 84.0298 68.6878 83.5341 67.0694C83.4122 66.6526 83.4446 66.2058 83.6252 65.8109C83.8058 65.4159 84.1225 65.0992 84.5175 64.9187C84.9124 64.7381 85.3592 64.7058 85.776 64.8276C86.1929 64.9495 86.5519 65.2173 86.7874 65.5822L86.8184 65.6287C88.4418 68.3055 90.2106 70.8914 92.1167 73.3748C92.5628 73.9401 93.0386 74.4814 93.542 74.9963C93.9455 75.4207 94.3939 75.8 94.8795 76.1272C95.0654 76.2357 95.2152 76.2873 95.2255 76.2667C95.2358 76.246 95.0396 76.1479 94.7091 76.184C94.4889 76.2216 94.2783 76.3023 94.0894 76.4216C94.0636 76.4216 94.0378 76.4577 94.1875 76.2512L94.5077 75.7916C96.2311 73.213 97.822 70.5484 99.2742 67.8079C100.782 65.04 102.264 62.1687 103.674 59.3853V59.3337C104.094 58.4715 104.839 57.8114 105.745 57.4986C106.652 57.1858 107.645 57.2459 108.508 57.6657C109.37 58.0855 110.03 58.8305 110.343 59.737C110.655 60.6435 110.595 61.6371 110.176 62.4992L110.16 62.4786Z" fill="#333333"/>
<path d="M86.9578 66.8629L85.7804 61.9777L81.1896 63.9555C81.1896 63.9555 81.5975 67.8337 84.8044 68.314L86.9578 66.8629Z" fill="#263238"/>
<path d="M86.7151 65.6597C86.7151 65.6597 88.2075 67.5807 88.5742 68.1074C88.0578 68.6238 84.6753 70.3331 84.4068 70.1731C83.9782 68.9492 83.374 67.3328 83.374 67.3328L86.7151 65.6597Z" fill="#263238"/>
<path d="M82.3463 58.8689L80.6577 60.4904C80.524 60.6224 80.4289 60.7882 80.3825 60.9702C80.3361 61.1522 80.3401 61.3434 80.3943 61.5232L81.1896 63.9349L85.7804 61.957L83.8955 59.0393C83.8114 58.9179 83.7021 58.816 83.5752 58.7404C83.4483 58.6648 83.3066 58.6174 83.1598 58.6012C83.0129 58.5851 82.8643 58.6006 82.724 58.6468C82.5837 58.693 82.4549 58.7687 82.3463 58.8689Z" fill="#263238"/>
<path d="M84.949 64.5752C84.7889 63.5837 85.7804 60.4749 86.6118 60.0308C87.4433 59.5867 86.9682 61.7298 87.0766 62.4528C87.3761 64.4358 87.4794 66.3258 86.4621 66.2225C85.4448 66.1192 85.2072 66.3 84.949 64.5752Z" fill="#263238"/>
<path opacity="0.2" d="M113.367 183.416L113.981 188.663L118.371 188.73L117.756 183.483L113.367 183.416Z" fill="black"/>
<path d="M106.612 56.6174C114.957 55.5845 123.034 56.7 127.434 57.5521C127.877 57.6388 128.299 57.8129 128.674 58.0642C129.049 58.3155 129.371 58.639 129.62 59.0158C129.869 59.3927 130.04 59.8153 130.124 60.2591C130.208 60.7029 130.203 61.1589 130.109 61.6007C126.835 77.2478 127.346 92.9879 127.072 96.3343L103.607 95.9573C102.001 76.7727 103.013 64.5545 103.633 59.5712C103.73 58.8174 104.075 58.1175 104.615 57.5824C105.155 57.0474 105.858 56.7077 106.612 56.6174Z" fill="#333333"/>
<path d="M121.433 45.5559C120.69 48.7112 119.843 54.5259 122.012 56.8291C120.204 58.4299 117.849 60.258 114.033 60.1083C110.217 59.9585 110.981 57.3971 112.04 56.0906C115.655 55.5019 115.655 52.8476 115.138 50.3172L121.433 45.5559Z" fill="#FFB573"/>
<path opacity="0.2" d="M118.861 47.4976L115.123 50.3378C115.256 50.9252 115.337 51.5231 115.365 52.1246C116.739 52.0317 118.67 50.6735 118.872 49.2585C118.976 48.6759 118.972 48.079 118.861 47.4976Z" fill="black"/>
<path d="M122.497 40.7688C121.944 45.0808 121.846 47.637 119.507 49.6975C115.995 52.7959 110.775 50.4153 110.021 46.0155C109.344 42.0495 110.356 35.6874 114.715 34.2518C115.68 33.9402 116.708 33.8785 117.703 34.0725C118.699 34.2664 119.629 34.7096 120.406 35.3607C121.183 36.0117 121.783 36.8494 122.149 37.7952C122.514 38.741 122.634 39.7641 122.497 40.7688Z" fill="#FFB573"/>
<path d="M122.75 44.5128C121.046 45.5456 119.099 45.0292 118.939 43.9447C118.779 42.8603 120.044 40.9857 120.519 40.0717C120.385 38.5224 119.29 38.068 119.486 36.9732C118.211 37.092 111.255 37.407 111.42 35.8371C111.585 34.2672 114.343 32.6509 117.617 33.0588C120.891 33.4668 123.034 34.8921 122.724 36.8854C124.552 36.5911 125.394 39.6844 122.75 44.5128Z" fill="#263238"/>
<path d="M124.273 45.1738C123.985 45.6324 123.608 46.0292 123.164 46.3412C122.721 46.6532 122.221 46.8742 121.691 46.9915C120.276 47.2962 119.626 46.0104 120.096 44.7193C120.504 43.5523 121.733 41.9927 123.127 42.2664C123.43 42.3296 123.713 42.4673 123.95 42.6671C124.187 42.8668 124.371 43.1224 124.485 43.4107C124.598 43.6991 124.639 44.0112 124.602 44.319C124.565 44.6267 124.452 44.9205 124.273 45.1738Z" fill="#FFB573"/>
<path d="M117.224 139.501C117.049 117.44 121.929 96.2516 121.929 96.2516L103.638 95.9573C103.638 95.9573 105.74 127.82 106.473 141.169C107.232 155.045 112.246 187.645 112.246 187.645L119.672 187.754C119.672 187.754 118.257 156.914 117.224 139.501Z" fill="#333333"/>
<path opacity="0.4" d="M117.224 139.501C117.049 117.44 121.929 96.2516 121.929 96.2516L103.638 95.9573C103.638 95.9573 105.74 127.82 106.473 141.169C107.232 155.045 112.246 187.645 112.246 187.645L119.672 187.754C119.672 187.754 118.257 156.914 117.224 139.501Z" fill="black"/>
<path opacity="0.2" d="M117.937 108.392C112.721 115.529 115.066 128.956 117.204 138.447C117.289 127.982 118.178 117.539 119.863 107.21L117.937 108.392Z" fill="black"/>
<path d="M111.255 184.754L111.735 187.78L119.946 187.919L120.411 185.058L111.255 184.754Z" fill="#263238"/>
<path d="M116.708 41.4918C116.708 41.843 116.481 42.1166 116.248 42.096C116.016 42.0753 115.851 41.781 115.877 41.4298C115.902 41.0787 116.104 40.805 116.336 40.8205C116.569 40.836 116.749 41.1355 116.708 41.4918Z" fill="#263238"/>
<path d="M112.159 40.9805C112.159 41.3369 111.931 41.6054 111.699 41.5899C111.467 41.5744 111.301 41.2697 111.327 40.9186C111.353 40.5674 111.554 40.2937 111.787 40.3092C112.019 40.3247 112.184 40.6294 112.159 40.9805Z" fill="#263238"/>
<path d="M113.093 41.2646C112.603 42.3117 111.968 43.2851 111.208 44.1564C111.438 44.3464 111.706 44.4844 111.994 44.5611C112.282 44.6377 112.583 44.6512 112.876 44.6005L113.093 41.2646Z" fill="#ED893E"/>
<path d="M114.312 45.8503C114.709 45.8308 115.098 45.7289 115.453 45.5511C115.809 45.3733 116.124 45.1235 116.378 44.8174C116.394 44.7955 116.401 44.768 116.397 44.7409C116.393 44.7137 116.379 44.6893 116.357 44.6728C116.335 44.6564 116.307 44.6494 116.28 44.6532C116.253 44.6571 116.229 44.6716 116.212 44.6935C115.922 45.0223 115.557 45.2771 115.149 45.437C114.74 45.5968 114.299 45.6571 113.863 45.6127C113.847 45.6092 113.83 45.6093 113.815 45.613C113.799 45.6166 113.784 45.6238 113.771 45.634C113.759 45.6441 113.748 45.657 113.741 45.6717C113.734 45.6863 113.731 45.7023 113.731 45.7186C113.731 45.7348 113.734 45.7508 113.741 45.7655C113.748 45.7801 113.759 45.793 113.771 45.8032C113.784 45.8133 113.799 45.8205 113.815 45.8242C113.83 45.8279 113.847 45.828 113.863 45.8244C114.012 45.8429 114.162 45.8516 114.312 45.8503Z" fill="#263238"/>
<path d="M117.452 40.3092C117.487 40.3086 117.521 40.2979 117.55 40.2782C117.573 40.2631 117.592 40.2436 117.608 40.2209C117.623 40.1981 117.634 40.1725 117.639 40.1456C117.644 40.1186 117.644 40.0909 117.638 40.0641C117.633 40.0372 117.622 40.0117 117.607 39.989C117.433 39.7066 117.194 39.47 116.91 39.2992C116.626 39.1284 116.306 39.0285 115.975 39.0079C115.92 39.0079 115.867 39.0296 115.829 39.0684C115.79 39.1071 115.768 39.1597 115.768 39.2144C115.768 39.2706 115.79 39.3244 115.83 39.3642C115.87 39.4039 115.924 39.4262 115.98 39.4262C116.24 39.4479 116.492 39.5308 116.715 39.6681C116.937 39.8053 117.124 39.9932 117.261 40.2163C117.281 40.2476 117.31 40.2728 117.343 40.2892C117.377 40.3056 117.414 40.3125 117.452 40.3092Z" fill="#263238"/>
<path d="M110.201 39.3435C110.235 39.3484 110.269 39.3447 110.3 39.333C110.332 39.3213 110.36 39.3018 110.382 39.2764C110.547 39.0741 110.757 38.9141 110.996 38.8099C111.235 38.7057 111.496 38.6602 111.756 38.6774C111.81 38.6833 111.865 38.6677 111.908 38.634C111.952 38.6003 111.98 38.551 111.988 38.4966C111.992 38.4695 111.99 38.4419 111.983 38.4154C111.976 38.389 111.963 38.3642 111.946 38.3426C111.93 38.321 111.909 38.3029 111.885 38.2895C111.861 38.276 111.835 38.2674 111.807 38.2642C111.479 38.2399 111.15 38.2943 110.848 38.4227C110.545 38.5511 110.277 38.75 110.067 39.0027C110.032 39.0446 110.016 39.0985 110.021 39.1526C110.025 39.2067 110.051 39.2568 110.093 39.2919C110.122 39.321 110.16 39.3392 110.201 39.3435Z" fill="#263238"/>
<path d="M142.198 193.656L137.803 193.589L135.996 183.411L140.39 183.483L142.198 193.656Z" fill="#333333"/>
<path d="M137.566 193.083L142.348 193.155C142.433 193.156 142.515 193.187 142.58 193.243C142.644 193.299 142.686 193.376 142.699 193.46L143.251 197.375C143.264 197.472 143.256 197.571 143.226 197.665C143.197 197.759 143.148 197.845 143.082 197.918C143.017 197.991 142.936 198.049 142.846 198.088C142.755 198.127 142.658 198.146 142.559 198.144C140.835 198.087 140.292 197.948 138.123 197.917C135.583 197.875 136.76 197.979 133.78 197.917C131.983 197.891 131.632 196.068 132.397 195.908C134.813 195.392 135.418 194.426 136.481 193.393C136.789 193.152 137.178 193.041 137.566 193.083Z" fill="#263238"/>
<path d="M138.48 193.543C137.721 193.569 137.313 193.543 137.116 193.197C136.92 192.851 136.233 191.844 136.285 191.467C136.337 191.09 139.42 190.78 139.724 191.389C140.029 191.999 140.029 193.501 138.48 193.543Z" fill="#263238"/>
<path d="M114.281 193.543C113.806 193.569 113.553 193.543 113.439 193.197C113.203 192.644 113.04 192.062 112.954 191.467C112.99 191.085 114.926 190.78 115.107 191.389C115.288 191.999 115.247 193.501 114.281 193.543Z" fill="#263238"/>
<path opacity="0.2" d="M135.996 183.416L136.931 188.663L141.325 188.73L140.39 183.483L135.996 183.416Z" fill="black"/>
<path d="M134.684 136.893C132.619 117.022 130.191 100.744 127.083 96.3343L111.544 96.0864C111.544 96.0864 120.607 127.257 124.098 140.394C127.713 154.053 134.844 186.323 134.844 186.323L141.919 186.422C141.919 186.422 138.991 152.416 134.684 136.893Z" fill="#333333"/>
<path opacity="0.4" d="M134.684 136.893C132.619 117.022 130.191 100.744 127.083 96.3343L111.544 96.0864C111.544 96.0864 120.607 127.257 124.098 140.394C127.713 154.053 134.844 186.323 134.844 186.323L141.919 186.422C141.919 186.422 138.991 152.416 134.684 136.893Z" fill="black"/>
<path d="M133.956 184.754L134.529 187.78L142.472 187.919L142.823 185.058L133.956 184.754Z" fill="#263238"/>
<path d="M116.796 63.2997C116.749 62.1946 115.479 60.7176 114.653 60.1134C120.772 58.4248 121.919 56.2042 121.919 56.2042C122.358 56.3186 122.781 56.4923 123.173 56.7206C123.535 60.1496 119.29 62.5096 116.796 63.2997Z" fill="white"/>
<path d="M113.186 60.0257C111.813 60.6643 110.687 61.7343 109.979 63.0725C107.433 58.5281 111.012 55.9047 111.012 55.9047C111.408 55.7929 111.823 55.7647 112.231 55.8221C111.544 57.3403 112.334 59.3388 113.186 60.0257Z" fill="white"/>
<path d="M149.515 65.2782L110.642 71.2891L114.998 99.46L153.871 93.4491L149.515 65.2782Z" fill="#333333"/>
<path opacity="0.9" d="M149.515 65.2782L110.642 71.2891L114.998 99.46L153.871 93.4491L149.515 65.2782Z" fill="white"/>
<path opacity="0.2" d="M149.518 65.2755L129.252 68.4092L133.608 96.5801L153.874 93.4464L149.518 65.2755Z" fill="#333333"/>
<path opacity="0.3" d="M121.184 90.567L116.305 91.3214L117.04 96.0778L121.919 95.3234L121.184 90.567Z" fill="#333333"/>
<path opacity="0.3" d="M120.272 84.6661L115.393 85.4205L116.128 90.1769L121.007 89.4225L120.272 84.6661Z" fill="#333333"/>
<path opacity="0.5" d="M123.172 69.3534L116.293 70.4172L116.659 72.7903L123.539 71.7265L123.172 69.3534Z" fill="#333333"/>
<path opacity="0.5" d="M144.69 66.0206L139.857 66.768L140.224 69.141L145.057 68.3937L144.69 66.0206Z" fill="#333333"/>
<path d="M128.704 58.084C131.684 59.5074 134.557 61.1435 137.302 62.9795C138.744 63.9238 140.124 64.9587 141.434 66.0779C142.152 66.6989 142.828 67.3665 143.458 68.0764C143.819 68.4948 144.152 68.9364 144.455 69.3984C144.845 69.985 145.153 70.6228 145.369 71.2937C145.516 71.7484 145.603 72.2207 145.627 72.6983C145.634 72.7808 145.634 72.8637 145.627 72.9462V73.1217V73.4781L145.601 74.1907L145.539 74.8569C145.498 75.301 145.451 75.7451 145.379 76.1634C145.307 76.5817 145.26 77.0155 145.178 77.4234C144.904 79.0914 144.501 80.6768 144.098 82.257C143.259 85.3878 142.224 88.463 141 91.4645C140.836 91.8697 140.531 92.2016 140.14 92.3984C139.75 92.5951 139.302 92.6433 138.878 92.5341C138.455 92.4248 138.086 92.1655 137.84 91.8044C137.594 91.4433 137.487 91.005 137.54 90.5711V90.5298C137.907 87.4314 138.356 84.302 138.681 81.2345C138.862 79.6853 139.001 78.1722 139.094 76.6901C139.125 76.3183 139.125 75.962 139.146 75.5953C139.167 75.2287 139.146 74.8775 139.146 74.5315V74.0151V73.54V73.3025V73.1837C139.146 73.1837 139.146 73.0649 139.146 73.1321C139.142 73.2146 139.142 73.2974 139.146 73.3799C139.146 73.4368 139.089 73.3231 138.965 73.1837C138.805 72.9999 138.633 72.8274 138.449 72.6673C137.995 72.2245 137.514 71.8106 137.008 71.4279C135.913 70.5965 134.684 69.7806 133.419 69.0008C130.883 67.4516 128.157 65.9643 125.497 64.5545H125.461C124.635 64.1066 124.016 63.3548 123.735 62.4584C123.454 61.562 123.533 60.5914 123.956 59.7522C124.378 58.913 125.11 58.2712 125.998 57.9627C126.885 57.6542 127.858 57.7032 128.709 58.0995L128.704 58.084Z" fill="#333333"/>
<path d="M137.917 89.7449L135.283 93.3184L140.282 95.1465C140.282 95.1465 142.275 91.6194 140.571 90.2613L137.917 89.7449Z" fill="#263238"/>
<path d="M135.944 97.8835L137.803 98.2295C138.161 98.293 138.531 98.2284 138.846 98.0471C139.161 97.8659 139.403 97.5794 139.528 97.238L140.282 95.1723L135.299 93.3184L134.731 96.0605C134.65 96.4632 134.733 96.8814 134.96 97.2232C135.188 97.565 135.542 97.8025 135.944 97.8835Z" fill="#263238"/>
<path d="M137.483 90.7364C137.483 90.7364 137.576 88.3041 137.638 87.6689C138.366 87.6225 142.053 88.4745 142.146 88.774C141.692 89.9928 141.113 91.6143 141.113 91.6143L137.483 90.7364Z" fill="#263238"/>
<path d="M124.872 40.0097C122.378 39.7308 112.133 37.2366 111.183 36.2503C111.115 34.3447 112.215 32.4185 112.892 31.9847C114.777 30.7454 118.923 30.6989 120.24 31.0707C121.557 31.4425 125.162 33.2757 125.761 35.0419C126.225 36.4413 124.872 40.0097 124.872 40.0097Z" fill="#333333"/>
<path d="M114.529 35.6564C111.384 35.1658 108.394 35.3827 107.335 36.9732C106.153 38.7497 110.046 36.1108 112.37 37.2469C116.259 39.1576 115.334 39.4572 121.227 39.3126C118.195 37.7737 118.175 36.2244 114.529 35.6564Z" fill="#333333"/>
<path opacity="0.6" d="M114.529 35.6564C111.384 35.1658 108.394 35.3827 107.335 36.9732C106.153 38.7497 110.046 36.1108 112.37 37.2469C116.259 39.1576 115.334 39.4572 121.227 39.3126C118.195 37.7737 118.175 36.2244 114.529 35.6564Z" fill="white"/>
<path d="M121.542 43.0513C121.604 43.0067 121.646 42.9397 121.659 42.8646C121.673 42.7894 121.656 42.7119 121.614 42.6485C121.569 42.5863 121.502 42.5443 121.426 42.5317C121.351 42.5191 121.273 42.537 121.211 42.5814C120.133 43.3256 119.128 44.1712 118.211 45.1066C117.085 43.9344 113.919 42.7002 112.262 42.726C111.079 42.726 110.294 42.6692 109.411 43.5419C108.657 44.2804 109.282 48.1896 109.757 49.2947C110.031 49.9009 110.439 50.4373 110.95 50.8639C111.46 51.2904 112.061 51.5961 112.706 51.758C114.451 52.073 118.18 52.2744 118.335 49.7233C118.367 49.1506 118.442 48.5811 118.557 48.0192C118.804 48.0616 119.055 48.084 119.306 48.0863C120.061 48.1027 120.799 47.8644 121.402 47.4098C121.432 47.387 121.458 47.3584 121.477 47.3257C121.496 47.293 121.508 47.2568 121.513 47.2193C121.518 47.1818 121.515 47.1437 121.505 47.1072C121.495 47.0708 121.477 47.0367 121.454 47.007C121.431 46.9767 121.402 46.9512 121.368 46.9322C121.335 46.9131 121.299 46.9009 121.261 46.8961C121.223 46.8912 121.184 46.894 121.147 46.9042C121.11 46.9144 121.076 46.9318 121.046 46.9554C120.706 47.1958 120.322 47.3654 119.916 47.4541C119.509 47.5429 119.089 47.5489 118.681 47.4718C118.846 46.7178 118.929 46.2324 118.562 45.6024C119.467 44.6547 120.466 43.8 121.542 43.0513Z" fill="#333333"/>
<path opacity="0.6" d="M121.542 43.0513C121.604 43.0067 121.646 42.9397 121.659 42.8646C121.673 42.7894 121.656 42.7119 121.614 42.6485C121.569 42.5863 121.502 42.5443 121.426 42.5317C121.351 42.5191 121.273 42.537 121.211 42.5814C120.133 43.3256 119.128 44.1712 118.211 45.1066C117.085 43.9344 113.919 42.7002 112.262 42.726C111.079 42.726 110.294 42.6692 109.411 43.5419C108.657 44.2804 109.282 48.1896 109.757 49.2947C110.031 49.9009 110.439 50.4373 110.95 50.8639C111.46 51.2904 112.061 51.5961 112.706 51.758C114.451 52.073 118.18 52.2744 118.335 49.7233C118.367 49.1506 118.442 48.5811 118.557 48.0192C118.804 48.0616 119.055 48.084 119.306 48.0863C120.061 48.1027 120.799 47.8644 121.402 47.4098C121.432 47.387 121.458 47.3584 121.477 47.3257C121.496 47.293 121.508 47.2568 121.513 47.2193C121.518 47.1818 121.515 47.1437 121.505 47.1072C121.495 47.0708 121.477 47.0367 121.454 47.007C121.431 46.9767 121.402 46.9512 121.368 46.9322C121.335 46.9131 121.299 46.9009 121.261 46.8961C121.223 46.8912 121.184 46.894 121.147 46.9042C121.11 46.9144 121.076 46.9318 121.046 46.9554C120.706 47.1958 120.322 47.3654 119.916 47.4541C119.509 47.5429 119.089 47.5489 118.681 47.4718C118.846 46.7178 118.929 46.2324 118.562 45.6024C119.467 44.6547 120.466 43.8 121.542 43.0513Z" fill="white"/>
</svg>
