<svg height="303" viewBox="0 0 236 303" width="236" xmlns="http://www.w3.org/2000/svg"><g fill="#2ea6d6"><path d="m40.5 77.3c0-24.7 0-49.3-.1-73.9 0-2.5.4-3.3 3.2-3.3q74.1.1 148.2 0c2.2 0 2.9.5 2.9 2.8q-.1 74.3 0 148.5c0 2.4-.6 3.1-3.1 3.1-21.7-.1-43.5 0-65.2-.1-1.9 0-2.9.2-3.1 2.6-1 11.8-2.3 23.5-3.5 35.3-.1.7.3 1.8-.5 2.1-.7.2-1.3-.7-1.8-1.2-14.2-12.4-28.4-24.7-42.6-37.2-1.4-1.2-2.8-1.6-4.6-1.6-8.3.1-16.7.1-25.1.1-4.7 0-4.7 0-4.7-4.9q0-36.2 0-72.3zm65.3 83.2c.8-7.2 1.5-13.8 2-20.5.2-2 1-2.7 3.2-2.7 21.3.1 42.6.1 63.9.1 1.8 0 2.8-.1 2.8-2.4-.1-38.5-.1-77.1 0-115.7 0-1.5-.4-2-2-2q-58.1 0-116.2 0c-1.8 0-2.1.5-2.1 2.1q.1 57.8 0 115.5c0 2.1.7 2.6 2.6 2.5 5.8-.1 11.5 0 17.3 0 1.2 0 2.3.1 3.2 1 3.1 2.8 6.3 5.5 9.4 8.2 5.2 4.5 10.3 9 15.9 13.9z" fill-rule="evenodd"/><path d="m141.4 64.8c-1.9 2.7-3.7 5.2-5.5 7.9q-8.6 13.2-17.2 26.4c-.9 1.5-1.6 1.5-2.6 0-7.2-11-14.3-22-21.5-32.9-.3-.5-.7-.7-1.3-.7 0 17.1-.1 34.3.1 51.4 0 2.5-.8 2.9-3 2.9-4.5-.2-9.1-.2-13.7 0-1.6 0-1.9-.5-1.9-2q0-40.9 0-81.8c0-1.4.3-1.8 1.8-1.8q8.5.1 17 0c1.3 0 1.9.5 2.5 1.5q9.6 15.6 19.3 31c2.1 3.4 2.2 3.4 4.2.1q9.7-15.5 19.3-31c.7-1 1.3-1.6 2.6-1.6q8.5.1 17 0c1.5 0 1.8.5 1.8 1.8q-.1 40.9 0 81.8c0 1.5-.4 2-2 2-4.7-.2-9.4-.2-14.2 0-2.2.1-2.4-.8-2.3-2.6 0-17.4 0-34.7 0-52.1q-.2-.1-.4-.3z"/><path d="m.5 261.9v-41.3h9.6v4.8q.7-2.6 2.3-3.9 1.6-1.4 4.7-1.4 2.5 0 4.2 1.2 1.8 1.1 2.5 3 1.1-2.1 2.6-3.1 1.6-1.1 4.4-1.1 3.5 0 5.3 1.5 1.9 1.5 2.6 4.1.7 2.6.7 6v30.2h-9.8v-30.4q0-4-2-4-1.1 0-1.7.8-.6.7-.8 1.8-.2 1.1-.2 2.1v29.7h-9.9v-30.4q0-1.3-.3-2.6-.3-1.2-1.6-1.2-1.1 0-1.7.8-.6.8-.8 1.9-.3 1.2-.3 2.3v29.2z"/><path d="m55.3 262.4q-12.3 0-12.3-12.8v-16.7q0-5.8 3.3-9.3 3.2-3.5 9-3.5 5.8 0 9.1 3.5 3.3 3.5 3.3 9.3v16.7q0 12.8-12.4 12.8zm0-7.6q1.3 0 1.8-.9.5-.9.5-2.3v-20.2q0-3.6-2.3-3.6-2.3 0-2.3 3.6v20.2q0 1.4.5 2.3.6.9 1.8.9z" fill-rule="evenodd"/><path d="m70.1 261.9v-6l10.4-27.5h-9.9v-7.8h20.1v6.7l-9.8 27.2h9.9v7.4z"/><path d="m100.7 262.4q-3.5 0-5.3-1.6-1.8-1.6-2.5-4.4-.6-2.8-.6-6.3 0-3.8.7-6.2.8-2.4 2.6-4 1.8-1.5 5-2.6l6.1-2.1v-4.2q0-3.4-2.2-3.4-2 0-2 2.7v2.5h-9.6q0-.2 0-.6 0-.3 0-.7 0-6.2 2.9-8.8 2.9-2.6 9.2-2.6 3.3 0 6 1.2 2.6 1.2 4.1 3.5 1.5 2.2 1.5 5.6v31.5h-9.8v-4.9q-.7 2.6-2.4 4-1.6 1.4-3.7 1.4zm3.9-7.7q1.2 0 1.6-1 .5-1 .5-2.2v-11.5q-2.1.8-3.2 2-1.1 1.3-1.1 3.7v5.3q0 3.7 2.2 3.7z" fill-rule="evenodd"/><path d="m120.4 261.9v-48.5h9.8v21.4l4.8-14.2h10.2l-6.2 17.9 7.9 23.4h-10.5l-6.2-19.5v19.5z"/><path d="m148.2 261.9v-41.3h10v4.6q.7-2.4 2.5-3.8 1.9-1.3 4.6-1.3v8.2q-1.2 0-2.9.3-1.7.2-2.9.7-1.3.4-1.3 1v31.6z"/><path d="m179.3 262.4q-4.4 0-7-1.7-2.6-1.6-3.8-4.7-1.1-3.2-1.1-7.6v-16.6q0-5.7 3.3-8.7 3.3-3 9.1-3 11.9 0 11.9 11.7v3q0 5.5-.1 7.4h-14.3v8q0 1.1.1 2.1.2 1.1.6 1.8.5.7 1.6.7 1.5 0 1.9-1.4.4-1.3.4-3.5v-3.9h9.8v2.3q0 4.6-1.1 7.8-1.1 3.1-3.9 4.7-2.7 1.6-7.4 1.6zm-2.1-25.1h4.7v-5.6q0-2.3-.5-3.2-.6-1-1.7-1-1.2 0-1.8.9-.7 1-.7 3.3z" fill-rule="evenodd"/><path d="m203.8 262.4q-4 0-5.4-1.7-1.4-1.7-1.4-5.2v-25.8h-2.7v-7.5h2.7v-8.8h9.6v8.8h2.8v7.5h-2.8v23.5q0 1 .4 1.4.3.4 1.2.4.7 0 1.2-.1v6.7q-.3.1-2 .5-1.8.3-3.6.3z"/><path d="m211.8 268.8v-6.2h4.7q1.1 0 1.1-.8 0-.4-.1-.8l-6.5-40.4h9.5l2.7 30.4 3.3-30.4h9.5l-7.7 43.5q-.4 2.3-1.5 3.5-1.2 1.2-3.9 1.2z"/><path d="m8.6 295.5h-7.8v-23.3h9.2q2.8 0 4.2.2 1.3.2 2.4.9 1 .7 1.7 1.9.7 1.2.7 2.6 0 1.7-.8 3-.9 1.3-3.2 2.3 3 .9 4.1 2.3 1.1 1.5 1.1 3.4 0 1.6-.7 3.1-.7 1.5-2 2.3-1.3.9-3.1 1.1-1.2.1-5.8.2zm-.1-13.8q2.8 0 3.5-.1 1.4-.1 2.2-.9.8-.8.8-2.1 0-1.3-.7-2.1-.7-.8-2.1-.9-.7-.1-7.2-.1v6.2zm1.3 10.4q2.6 0 3.3-.1 1.2-.3 2-1.1.7-.9.7-2.3 0-1.2-.5-2-.6-.8-1.7-1.2-1.1-.4-4.4-.4h-4.3v7.1z" fill-rule="evenodd"/><path d="m31.7 295.5q-4.4 0-6.5-2.8-1.6-2.3-1.6-5.8 0-4.2 2.1-6.5 2.2-2.3 5.5-2.3 3.7 0 5.9 2.4 2 2.3 2 6.8v.5h-11.5q.1 2.5 1.2 3.7 1.2 1.3 2.9 1.3 1.2 0 2-.7.9-.6 1.2-1.8l3.9.7q-.7 2-2.6 3.3-1.8 1.2-4.5 1.2zm3.5-9.9q0-2.4-1.1-3.6-1.1-1.1-2.6-1.1-1.7 0-2.7 1.2-1.1 1.1-1.1 3.4v.1z" fill-rule="evenodd"/><path d="m50.5 295.5q-3.6 0-5.8-2.3-2.2-2.3-2.2-6.4 0-4.2 2.2-6.5 2.2-2.2 5.9-2.2 5.9 0 7.3 4.9l-3.8.7q-.2-1.2-1.1-1.9-.9-.8-2.3-.8-4.1 0-4.1 5.5 0 6 4.1 6 3 0 3.6-3.3l3.9.6q-.6 2.7-2.5 4.2-1.9 1.5-5.2 1.5z"/><path d="m69.7 295.5q-2.3 0-4.3-1-2.1-1-3.2-3-1.1-2.1-1.1-5 0-2.2 1.1-4.2 1.1-2.1 3.1-3.2 2-1 4.4-1 3.8 0 6.2 2.4 2.5 2.5 2.5 6.2 0 3.8-2.5 6.3-2.4 2.5-6.2 2.5zm0-3q2 0 3.3-1.5 1.3-1.5 1.3-4.2 0-2.7-1.3-4.2-1.3-1.5-3.3-1.5-1.9 0-3.2 1.5-1.3 1.5-1.3 4.2 0 2.7 1.3 4.2 1.3 1.5 3.2 1.5z" fill-rule="evenodd"/><path d="m107.2 295.5h-4v-9.6q0-2.7-.5-3.5-.7-1.2-2.2-1.2-1.1 0-2 .7-1 .6-1.4 1.8-.4 1.3-.4 3.8v8h-3.9v-9.2q0-2.6-.3-3.4-.2-.8-.8-1.2-.7-.5-1.7-.5-1.1 0-2.1.7-.9.6-1.3 1.7-.4 1.2-.4 3.8v8.1h-3.9v-16.7h3.6v2.9q2.7-3.3 5.7-3.3 1.6 0 2.7.6 1.2.7 2.2 2.4 1.4-1.7 2.6-2.4 1.3-.6 2.7-.6 3.7 0 4.9 2.8.5 1.1.5 3.5z"/><g fill-rule="evenodd"><path d="m119.2 295.5q-4.4 0-6.5-2.8-1.6-2.3-1.6-5.8 0-4.2 2.1-6.5 2.2-2.3 5.5-2.3 3.7 0 5.9 2.4 2 2.3 2 6.8v.5h-11.5q.1 2.5 1.2 3.7 1.2 1.3 2.9 1.3 1.2 0 2-.7.9-.6 1.2-1.8l3.9.7q-.7 2-2.6 3.3-1.8 1.2-4.5 1.2zm3.5-9.9q0-2.4-1.1-3.6-1.1-1.1-2.6-1.1-1.7 0-2.7 1.2-1.1 1.1-1.1 3.4v.1z"/><path d="m156.9 295.5h-5l-3.4-5.1q-1.9-2.8-2.6-3.6-.8-.7-1.6-1-.8-.3-3.9-.3v10h-4.2v-23.3h9.9q3.8 0 5.4.6 1.7.6 2.7 2.2 1 1.5 1 3.6 0 2.5-1.5 4.2-1.5 1.6-5.5 2.2 2.3 1.4 3.3 2.5 1.1 1 2.8 3.8zm-12.6-13.1q3.6 0 4.5-.4 1-.3 1.5-1.1.6-.8.6-2 0-1.3-.8-2.2-.7-.8-2-1-.6-.1-7.7-.1v6.8z"/><path d="m167.1 295.5q-4.3 0-6.4-2.8-1.6-2.3-1.6-5.8 0-4.2 2.1-6.5 2.2-2.3 5.5-2.3 3.7 0 5.9 2.4 2 2.3 2 6.8v.5h-11.5q0 2.5 1.2 3.7 1.2 1.3 2.9 1.3 1.2 0 2-.7.8-.6 1.1-1.8l3.9.7q-.7 2-2.5 3.3-1.8 1.2-4.6 1.2zm3.6-9.9q-.1-2.4-1.1-3.6-1.1-1.1-2.6-1.1-1.7 0-2.8 1.2-1 1.1-1 3.4v.1z"/><path d="m183.2 295.9q-2.5 0-3.9-1.4-1.5-1.4-1.5-3.5 0-1.3.7-2.4.6-1.1 1.8-1.6 1.2-.6 3.5-1.1 3.3-.6 4.8-1.2v-.7q0-1.5-.8-2.1-.7-.7-2.6-.7-2.6 0-3.3 2.1l-3.6-.6q.6-2 2.3-3.2 1.6-1.1 4.9-1.1 3 0 4.4.7 1.4.7 2 1.7.6 1 .6 3.9l-.1 5.4q0 2.3.2 3.4.3 1.2.6 2h-3.7q-.1-.3-.4-1.1-.1-.5-.3-1.1-1.5 1.5-2.8 2-1.3.6-2.8.6zm1.4-2.6q1.4 0 2.6-.9.9-.7 1.2-1.7.2-.6.2-3.7-1.3.4-3.2.8-2 .5-2.6.9-1.1.7-1.1 1.9 0 1.1.9 1.9.8.8 2 .8z"/><path d="m203.5 295.9q-2.8 0-4.8-2.3-2.1-2.3-2.1-6.5 0-4.3 2-6.5 2-2.2 5-2.2 2.8 0 5.4 3v-9.2h3.9v23.3h-3.6v-3.3q-1.6 2.3-3 3-1.4.7-2.8.7zm1.3-3q1.8 0 3-1.5 1.2-1.4 1.2-4.2 0-3.1-1.2-4.5-1.1-1.5-3-1.5-1.8 0-3 1.4-1.2 1.4-1.2 4.1 0 2.9.9 4.2 1.2 2 3.3 2z"/></g><path d="m216.1 278.8h4.2l4.3 13 4.3-13h4.1l-6 16.2-1.1 3q-.6 1.5-1.1 2.3-.5.8-1.2 1.2-.6.5-1.6.8-1 .2-2.3.2-1.3 0-2.3-.2l-.3-2.9q.6.1 1.5.1 1.8 0 2.7-1 .8-1 1.3-2.7z"/></g></svg>